<?xml version="1.0" encoding="UTF-8"?>
<svg version="1.1" viewBox="0 0 1600 566" width="10rem" height="" xmlns="http://www.w3.org/2000/svg">
<path transform="translate(332,51)" d="m0 0 8 1 8 4 7 8 7 19 9 10 11 9 39 33 14 12 10 7 10 4 22 1 9 5 6 7 2 5v14l-7 15-2 8v10l3 26 3 44 4 26 4 9 9 10 5 6 2 5v12l-4 9-7 6-21 9-8 7-11 14-11 13-12 14-9 10-9 11-6 8-6 11-3 11v14l-4 8-8 7-8 3-10-1-16-7-4-1h-22l-30 3-32 2-23 3-11 4-12 11-6 5-4 2h-10l-10-4-6-7-9-21-3-4v-2l-4-2-17-14-14-12-13-11-11-9-10-9-14-9-14-3h-12l-9-4-7-7-4-10 1-10 7-17 1-3v-15l-4-38-3-42-3-16-4-8-9-10-5-6-2-6v-9l3-9 6-7 9-4 13-5 8-6 13-16 11-13 12-14 13-15 11-14 5-8 3-9v-14l3-9 4-6 6-5 9-3h6l15 7 14 3 16-1 32-3 44-4 15-3 11-7 8-9 6-3zm-63 39-47 5-21 2-10 3-8 6-11 10-11 8-7 9-6 15-16 42-5 15-1 8 1 1h8l17-5 23-10 10-4 11-8 11-14 5-4 4-2h12l8 4 6 7 2 7-1 10-6 9-7 4-4 1h-10l-5-2-12-1-10 2-24 10-21 9-10 9-8 12-7 6-9 3h-7l-8-4-3-1-2-4-4-9v-8l3-8 5-5 13-11 7-8 6-15 10-26 4-11-4 1-8 9-9 11-12 14-11 14-9 11-5 9-1 23-2 8v11l4 13 15 32 13 29 7 9 7-6 6-10 15-37 2-8v-14l-1-5v-13l5-9 5-4 9-3 8 1 8 5 6 9 1 3v8l-3 9-7 6-11 7-7 8-7 15-11 27-3 9v17l2 13-2 9-5 8-8 4-11 1-8-3-5-4-4-8-1-10 2-12v-9l-4-13-12-26-5-12-4-1v15l5 52 3 14 5 8 8 8 12 17 9 6 29 11 38 14 10 3 4-1 1-2v-8l-6-18-11-25-5-10-7-8-11-8-7-8-1-2v-12l4-8 5-5 11-3 8 1 7 4 4 5 3 6v10l-3 12v10l8 21 12 28 7 11 17 11 4 5 3 8v8l-4 9-6 6-10 3h-9l-6-4-7-8-8-11-9-6-24-9-21-8-6-1 2 4 10 9 13 10 13 11 10 8 14 11 6 3 11 1h13l4 2h18l18-8 40-18 13-6 8-5-1-5-7-6-20-9-26-10-4-1h-17l-5 1h-12l-8-5-4-5-3-8 1-9 4-8 1-3 5-2 4-2h14l6 4 7 8 6 10 11 8 36 15 13 4h14l13-4 9 2 8 5 4 6 2 6v9l-3 8-4 5-8 5h-11l-11-2h-11l-12 4-27 12-17 9v1l16-1 56-6 16-2 6-4 5-4 6-7 15-10 6-8 5-11 16-43 7-20v-7l-1-1h-9l-11 3-25 10-14 6-10 8-8 11-5 6-8 3h-9l-8-3-6-7-3-6v-10l5-10 6-5 9-2 12 2 3 1h14l20-8 32-13 8-7 9-14 7-6 6-2h11l8 5 6 8 2 11-3 9-6 7-13 9-6 8-6 14-10 27-5 12v2l4-2 9-10 8-10 28-34 7-10 3-9v-16l3-12v-10l-6-17-15-32-11-24-6-9-4 1-8 9-9 21-10 25-1 5v10l2 9v10l-5 10-5 4-6 2h-12l-7-4-6-8-1-3v-12l4-8 7-6 12-7 6-8 10-23 9-23 1-4v-13l-2-10v-12l5-10 9-6h13l9 4 6 8 1 2v16l-1 4v13l4 13 9 19 8 18 3 5h2l-1-13-6-61-2-10-6-10-8-8-10-14-8-7-25-10-35-13-14-5-8-1-2 3 1 12 6 16 12 28 6 9 7 6 10 7 4 5 2 7v7l-3 8-5 5-8 4h-11l-8-4-5-6-2-5v-11l2-8v-13l-5-15-15-35-6-9-10-7-9-7-4-6-1-3v-11l5-10 6-5 4-2h13l6 3 7 7 6 8 5 5 8 6 27 11 22 8 2-2-10-9-14-11-14-12-10-8-13-11-5-3-12-3h-14l-6-1h-19l-47 21-24 11-7 5 2 5 8 6 10 5 35 14 5 1h9l8-1h15l8 4 4 5 3 8v8l-3 8-8 7-7 2h-10l-8-5-7-11-6-8-5-4-15-7-30-12-12-3-12 1-10 2h-7l-9-4-6-7-3-8 1-10 6-10 6-4 13-1 6 1h16l10-3 19-9 18-8 7-4v-1z" fill="#29C7D9"/>
<path transform="translate(55,304)" d="m0 0 3 4 2 8 3-2 3 9v2h2l2-3 2 9 4 36 4 11 14 16 9 13 10 6 52 19 20 7 6 1 1-2v-8l-6-18-11-25-5-10-6-7-11-8-7-7-2-4v-12l4-8 6-6 11-3 8 1 7 4 5 6 3 6v10l-3 12v10l8 21 12 28 7 11 16 10 5 6 3 8v8l-4 9-7 7-10 3h-9l-6-4-8-9-8-11-8-5-24-9-21-8-6-2 5 6 14 11 14 12 14 11 15 12 6 3 11 1h13l4 2h18l18-8 40-18 13-6 7-4-1-5-8-6-25-11-19-7-4-1h-17l-5 1h-12l-8-5-5-6-3-8 1-9 4-8 5-5 6-3h14l6 4 8 9 6 10 10 7 36 15 13 4h14l13-4 9 2 8 5 5 7 2 6v9l-3 8-5 6-8 5h-11l-11-2h-11l-12 4-27 12-15 8 14-1 56-6 16-2 6-4 3-3h2l2-4 8-7 11-7 6-9 5-12 18-48 4-12v-7h-9l-11 3-25 10-14 6-10 8-10 14-5 4-6 2h-9l-8-3-7-8-3-6v-10l5-10 7-6 9-2 12 2 3 1h14l20-8 32-13 7-6 9-14 8-7 6-2h11l8 5 6 7 3 10-2 11-8 9-13 9-6 9-8 20-7 19-6 14 8-7 11-14 11-13 18-22 7-10 3-9v-16l3-12v-10l-6-17-1-4 4 2 5 9-1-7 3-4 5-2 3-3 3 2 1 6 4-1 1-3 4 16 7 9 8 8 3 7v12l-4 9-7 6-21 9-8 7-11 14-11 13-12 14-9 10-9 11-6 8-6 11-3 11v14l-4 8-8 7-8 3-10-1-16-7-4-1h-22l-30 3-32 2-23 3-11 4-12 11-6 5-4 2h-10l-10-4-6-7-9-21-3-4v-2l-4-2-17-14-14-12-13-11-11-9-10-9-14-9-14-3h-12l-9-4-7-7-4-10 1-10 7-17 1-3v-15l-4-38z" fill="#4794DB"/>
<path transform="translate(136,116)" d="m0 0 1 4-8 15-1 5 11-1 1 5h3l8-15 8-7 3-1v3l-7 9-6 15-16 42-5 15-1 8h8l17-5 23-10 10-4 11-8 10-13 6-5 4-2h12l8 4 7 8 2 7-1 10-6 9-8 5-4 1h-10l-5-2-12-1-10 2-24 10-21 9-9 8-8 12-8 7-9 3h-7l-8-4-5-5-5-10v-8l3-8 4-5 13-10 8-9 6-15 10-26 4-10-4 2-11 13-9 11-12 14-8 10-9 12-3 6-1 23-2 8v11l4 13 15 32 13 29 6 8 7-6 8-16 12-30 2-8v-14l-1-5v-13l5-9 6-5 9-3 8 1 8 5 6 8 2 5v8l-3 9-8 7-11 7-6 7-7 15-11 27-3 9v17l2 13-2 9-6 9-8 4-11 1-8-3-6-5-4-8-1-10 2-12v-9l-4-13-12-26-4-10v-2l-4-1 2 31-3 2-3-3-2-8h-1l-1 10h-1l-2-15-2-1-3-25-3-16-4-8-9-10-5-6-2-6v-9l3-9 6-7 9-4 13-5 8-6 13-16 11-13 12-14 13-15 11-14z" fill="#32B7D9"/>
<path transform="translate(328,57)" d="m0 0h12l8 5 5 6 4 13 4 8v2h2l5 5 4 5-3 1-5 1-16-4-10-1h-8l-6-1h-19l-47 21-24 11-6 4 2 5 10 7 39 16 8 2h9l8-1h15l8 4 5 6 3 8v8l-3 8-7 7-9 3h-10l-8-5-7-10-6-9-5-4-15-7-30-12-12-3-12 1-10 2h-7l-9-4-7-8-3-8 1-10 6-10 7-5 13-1 6 1h16l10-3 19-9 18-8 6-3-16 1-60 6-10 3-8 6-11 10-7 5-6 1-7 6-9 17-1-2-3 1v-6l-11 1 1-7 7-13-1-5 2-6v-14l1-5 5-2 2-4 6-4 8-2h6l19 8 7 1h21l15-2 35-2 10-2 21-2 13-5 10-9 5-5h2v-2z" fill="#1DE0D9"/>
<path transform="translate(1426,145)" d="m0 0h7l8 7 20 30 29 43 22 33 4 2v-108l6-7h6l5 4 1 2v136l-6 7-5 2-6-1-6-5-12-18-29-43-12-18-19-28-4-1v23l-1 87-4 3h-8l-4-4-1-3v-132l3-6z" fill="#32B7D9"/>
<path transform="translate(424,197)" d="m0 0h13l9 4 6 7 2 4v16l-1 4v13l4 13 9 19 8 18 2 4 2 1-3-22-4-42-2-17-4-10 3-1v2h2v2h2l3 6v2h4l2-13 4-7 2 3-2 10v10l3 26 3 44 2 16-1 3h-3l-1 3-3-9h-3l-1 3-6 3-1 7 2 4v6h-1l-3-9-4-8-4-2-18-39-8-17-3-4-4 1-7 8-9 21-10 25-1 5v10l2 9v10l-5 10-6 5-6 2h-12l-7-4-6-7-2-5v-12l4-8 8-7 12-7 6-9 13-31 6-17v-13l-2-10v-12l5-10 8-6z" fill="#32B6D9"/>
<path transform="translate(798,144)" d="m0 0 9 3 6 9 17 42 14 34 15 37 5 13 1 7-3 5-3 3-7-1-6-9-7-16-5-6-5-1h-62l-5 3-5 8-7 16-4 5-7 1-5-5-1-7 6-16 15-36 11-27 19-47 5-10 6-4zm-1 33-7 15-17 42-1 9 2 2h51l1-8-7-19-16-38-2-3z" fill="#32B6D9"/>
<path transform="translate(1094,144)" d="m0 0 7 2 6 7 12 29 19 47 18 44 5 14-2 6-5 4-7-1-8-16-6-11-5-5h-67l-7 8-5 11-5 10-5 4-6-1-4-5v-8l18-44 32-79 5-10 6-5zm-2 33-17 40-8 21 1 6 1 1h51l1-2v-8l-13-32-10-24-2-2z" fill="#4794DB"/>
<path transform="translate(628,145)" d="m0 0h26l18 6 13 8 5 6v7l-5 5-4 2-15-9-9-4-5-1h-22l-13 4-12 7-8 8-7 11-4 10-1 4v23l4 12 5 9 9 10 8 6 11 5 13 2 22-1 11-5 12-7 5 1 4 4 1 8-6 7-16 8-9 3-6 1h-25l-13-3-14-7-15-12-10-13-7-15-3-11-1-7v-13l3-15 7-16 9-12 5-6 10-8 10-6 15-5z" fill="#2DACCA"/>
<path transform="translate(160,231)" d="m0 0 8 1 8 5 6 8 2 5v8l-3 9-8 7-11 7-6 7-7 15-11 27-3 9v17l2 13-2 9-6 9-8 4-11 1-8-3-6-5-4-8-1-10 2-12v-9l-4-13-1-5-2-9-3-10 4-1 3 3 7 14-5-14 2-4 12 26 6 8 7-6 8-16 12-30 2-8v-14l-1-5v-13l5-9 6-5z" fill="#4794DB"/>
<path transform="translate(896,145)" d="m0 0h97l5 5 2 4-1 6-4 4-36 2-3 2-1 3-1 118-4 5-6 2-5-3-3-3-1-6-1-115-2-3-36-1-3-1-3-5v-7z" fill="#28C7D9"/>
<path transform="translate(1214,145)" d="m0 0h6l5 6 1 3 1 117 2 5h65l7 1 3 5v8l-3 4h-87l-5-7-1-3v-132z" fill="#4794DB"/>
<path transform="translate(213,125)" d="m0 0 7 1 4 2-2 3v6h2l-1-4 3-3 6-2-1 3-3 2 2 5 10 7 39 16 8 2h9l8-1h15l8 4 5 6 3 8v8l-3 8-7 7-9 3h-10l-8-5-7-10-6-9-5-4-15-7-30-12-12-3-12 1-10 2h-7l-9-4-7-8-3-8v-6l2 4 2 1 1-5 4-2 1 4 9-3 2 2 15-4 4-2z" fill="#29C7D9"/>
<path transform="translate(75,193)" d="m0 0 1 2h-2l-1 5-6 8h-2l-1 4 4 3 3-4 3-2v6l4-8h3l-2 5-2 4-1 23-2 8v11l4 13 15 32v7l5 14-1 2-8-16v-2h-6l6 16-1 4-2-2-11-25-2-7-4-1 2 31-3 2-3-3-2-8h-1l-1 10h-1l-2-15-2-1-3-25-3-16-4-8-9-10-5-6-2-6v-9l3-9 6-7 9-4 13-5 8-6 3-4z" fill="#32B6D9"/>
<path transform="translate(1522,145)" d="m0 0h6l5 4 1 2v136l-6 7-5 2-6-1-6-5-30-45v-4l3-1v-3l5-1 3 3h3l8 10v-3l3 3 7 10 3 1v-108z" fill="#4794DB"/>
<path transform="translate(759,230)" d="m0 0h2l-1 4 5-1 3 1 3 3h1l2 7 50 1h3l3-1 1-5 3 1 1-3h4v2h2l1-2h4l17 42 2 10-3 5-3 3-7-1-6-9-7-16-5-6-5-1h-62l-5 3-5 8-7 16-4 5-7 1-5-5-1-7 6-16 6-14h4l5-11z" fill="#4794DB"/>
<path transform="translate(1094,144)" d="m0 0 7 2 6 7 12 29 19 47 2 7-3 1-1 2-3-5-4 2-1 6-2-1-1 3-4 3h-2l1-4v-8l-13-32-10-24-5-2-3 9-15 36-5 13-4-1-2 4v-4l-6-1-3 4v-5l-3 4-2 1 1-5 12-30 17-42 5-10 6-5z" fill="#32B6D9"/>
<path transform="translate(1089,362)" d="m0 0 13 2 11 6 8 8 6 12 2 7v15l-4 11-6 10-10 8-10 4-5 1h-13l-11-4-8-6-8-9-4-9-2-9v-10l4-13 6-10 9-8 12-5zm-6 14-9 3-8 7-5 11-1 9 4 13 5 7 9 5 4 1h15l7-3 7-6 4-7 1-4v-15l-4-10-7-7-7-3-5-1z" fill="#0C67A7"/>
<path transform="translate(1351,362)" d="m0 0h24l10 2 8 6 6 9 1 4v16l-5 10-6 6 3 9 7 15-2 5-4 3-5-2-12-22-2-3-8-1h-7l-1 23-6 5-5-2-2-6v-70l2-5zm9 14-1 1v28h19l5-2 4-5 1-4v-7l-4-8-2-2z" fill="#0D68A7"/>
<path transform="translate(594,362)" d="m0 0h13l15 2 12 6 9 9 6 12 1 5v17l-4 11-6 9-10 8-10 4-8 1h-22l-4-4-1-9 1-67 3-3zm12 14-7 1v55l1 1h9l12-2 8-5 6-7 3-8v-13l-4-10-5-6-10-5z" fill="#0C67A7"/>
<path transform="translate(1260,362)" d="m0 0h44l3 1 2 4-1 7-2 2-19 1h-19l1 6v15h28l4 5-1 7-1 1-8 1h-22v21l9-1h27l4 5-1 7-2 2h-47l-3-4-1-5v-67l2-5z" fill="#0E68A8"/>
<path transform="translate(280,245)" d="m0 0 16 3 10 5 3 4v6l-6 5-6-1-11-4h-12l-10 5-6 8-3 10 1 10 5 10 8 7 7 3h9l16-7 5 3 3 3v6l-8 7-8 3h-24l-14-7-9-9-7-14-1-4v-17l5-13 7-9 9-7 11-4z" fill="#4794DB"/>
<path transform="translate(1357,145)" d="m0 0h6l5 4 1 2v140l-5 4-6 1-5-4-2-6v-133l4-6z" fill="#33B7DA"/>
<path transform="translate(884,362)" d="m0 0h38l9 1 2 4v5l-4 4-16 1h-21v20h23l7 2 3 4-1 6-1 2-6 1h-25l1 20h35l5 4v7l-4 3h-46l-3-4-1-8v-41l1-27z" fill="#0D68A8"/>
<path transform="translate(690,362)" d="m0 0h35l12 1 2 3v6l-3 4-10 1h-27v21h29l4 6-2 6-1 1-7 1h-23v20h36l4 4v7l-3 3h-47l-3-5v-73z" fill="#0D67A7"/>
<path transform="translate(136,116)" d="m0 0 1 4-8 15-1 5 11-1 1 5h3l8-15 8-7 3-1v3l-7 9-6 15-16 42-3 8-5 1-3 8-1-3h-3l-2-4 3-8 1-4-2-1 10-27 5-12-4 2-11 13-9 11-12 14-8 10-7 9-4 1-4 9h-1v-7l-4 5-2 3-1-4-4-2 2-1 1-3 5-5 4-8-1-1 6-9 9-10 9-11 10-11 9-11 11-13 8-12z" fill="#29C7D9"/>
<path transform="translate(160,231)" d="m0 0 8 1 8 5 6 8 2 5v8l-3 9-8 7-11 7-6 7-7 15-8 20-4 1-2 2 2-11-4-4-3 10-4 8-3-2 16-39 2-8v-14l-1-5v-13l5-9 6-5z" fill="#32B6D9"/>
<path transform="translate(1169,362)" d="m0 0h26l9 2 8 6 6 9 2 8v7l-4 12-7 8-8 4-24 1v19l-3 7-1 1h-5l-3-4v-75l2-4zm13 14-5 2-1 5v15l2 6 1 1h19l5-2 4-7v-10l-3-6-3-3z" fill="#0C67A7"/>
<path transform="translate(582,241)" d="m0 0 3 4 4 6 2 1 1-2 7 9 7 7 16 8 13 2 22-1 11-5 12-7 5 1 4 4 1 8-6 7-16 8-9 3-6 1h-25l-13-3-14-7-15-12-10-13 2-1v-6l-3-6 1-4 2 3 3-2z" fill="#4794DB"/>
<path transform="translate(216,166)" d="m0 0h12l8 4 7 8 2 7-1 10-6 9-8 5-4 1h-10l-5-2-12-1-10 2-24 10h-3v-2l3-3-4 1-1-1v-5l26-12 3-3 3-5 5-5 11-13z" fill="#29C6D9"/>
<path transform="translate(780,365)" d="m0 0 4 1 5 8 10 23 8 20 1 2 3-1 7-15 12-30 4-7 3-1 4 2 2 3-1 9-16 39-8 19-5 8-2 2-4-1-4-4-10-23-15-37-3-8 1-5z" fill="#0C67A7"/>
<path transform="translate(364,192)" d="m0 0 3 1 7 16 6 8 11 8 8 7 3 9v7l-3 8-5 5-6 4-3 1h-11l-8-4-6-7-2-5v-11l2-8v-13l-5-15-1-4 5 2 4 9 3 7 5-1-2-6-1-6-4-7z" fill="#33B6DA"/>
<path transform="translate(332,51)" d="m0 0 8 1 8 4 7 8 7 19 5 7v3l8 8 11 9 10 9 7 7 11 9 4 6-4 1-5-3-1-2h2l-2-3-4 1-9-7-16-13-8-6-6-1-6-5 1-2 5 1 5-2-5-5-2-4h-2l-7-15-3-9-5-6-6-3h-17v2l-8 7-9 8-13 5-21 2-10 2-35 2-15 2h-24l-13-5-10-4-10 1-7 3-8 7-1-2 5-8 6-5 9-3h6l15 7 14 3 16-1 32-3 44-4 15-3 11-7 8-9 6-3z" fill="#22D8D9"/>
<path transform="translate(278,87)" d="m0 0h6l1 3-5 6-20 9h-2l1 2 7-1 8-1 16-6 5 1-4 3-57 26-6 1-4 1v6h-2l-1-6 1-3-7-2v3l-10 4-10 2-1-2-10 3v-5l-4 4-1 3-3-1v-8l6-10 7-5 13-1 6 1h16l10-3 19-9 18-8 6-3-4-2z" fill="#22D8D9"/>
<path transform="translate(1522,145)" d="m0 0h6l5 4 1 2v84h-3l-2 7-1-3v-7h-6v11l-2 15h-4v-106z" fill="#32B6D9"/>
<path transform="translate(394,293)" d="m0 0 2 1-3 10-2 4 6 2 2 7 2 6 3-1 2 7v10l-5 10-6 5-6 2h-12l-7-4-6-7-2-5v-12l4-8 8-7 12-7 6-9z" fill="#4794DB"/>
<path transform="translate(643,148)" d="m0 0 15 2 18 7 9 6 1 8-5 2-14-5-1 2-9-4-5-1h-22l-13 4-12 7-4 4-5 1-6 5-5 8h-3v2l-4 1v-7l5-10 8-10 9-8 14-8 16-5z" fill="#29C7D9"/>
<path transform="translate(973,362)" d="m0 0 5 1 3 4 1 65h35l5 5-1 7-2 2h-47l-3-5-1-8v-19l1-47z" fill="#0C67A6"/>
<path transform="translate(1214,145)" d="m0 0h6l5 6 1 3v77l-3-4-1 7h-1l-1-13-2-4h-5l-1 9-3-2-1-6v-66z" fill="#29C7D9"/>
<path transform="translate(1351,183)" d="m0 0h1l1 68 1-2 1-20 2-3 1-8 3 1 2-1 1 13v9l1-8 1 3h2v-28h1v84l-5 4-6 1-5-4-2-6z" fill="#4794DB"/>
<path transform="translate(1092,173)" d="m0 0 6 1 6 8 1 4 3 1 3 4h3l-1-9-1-7 2-1v2l3 1 21 52 2 7-3 1-1 2-3-5-4 2-1 6-2-1-1 3-4 3h-2l1-4v-8l-13-32-10-24-5-2-2 6-2-1 2-7z" fill="#32B6D9"/>
<path transform="translate(953,190)" d="m0 0h1v99l-4 5-6 2-5-3-3-3-1-6v-63h1l1 37 1-1 1-20 2-4h1v-7l4-2 1 1 1 15h3v2h2z" fill="#4894DC"/>
<path transform="translate(1417,182)" d="m0 0h1l1 47h2l1 7v6h2v-2h2l-3-8v-5l4-2 2 4-1 12 1 1 2-6h2l1-2v58l-4 3h-8l-4-4-1-3z" fill="#4794DB"/>
<path transform="translate(935,172)" d="m0 0h3l1 9h2l1 9h5l1-4 2-4 1 3 2 1v-11h1l-1 67h-2l-2-2-2 3-1-18-3 1v8l-1 7-2-4-1 20-2 2-1-1-1-37z" fill="#33B7DA"/>
<path transform="translate(1092,149)" d="m0 0 9 1 2 1 1-2 5 8 7 18h-3l1 7 1 10h-3l-7-6-6-10-3-2-7 1-2 6-4 7h-2v2l-5-1-1-4 4-16 3-11 7-7z" fill="#29C7D9"/>
<path transform="translate(797,149)" d="m0 0h6l7 6 1 1h2l4 11h-2l3 13 2 8v6l-5-2-10-14-1-3h-2v-2l-7 2-2 2-3 9h-2l-2 5-6 1-1-4 2-8 8-24z" fill="#29C7D9"/>
<path transform="translate(1429,149)" d="m0 0 4 1 8 8 11 16 2 5-1 5-3 4-4-2-2-4-4-1v-2l-7 2-4 4-1 3h-3l-3-3-2-12h-2v9h-1v-26l3-6 1 2z" fill="#29C7D9"/>
<path transform="translate(173,104)" d="m0 0 2 1-4 5 8-4h4l-5 5-9 8-4 3-6 1-7 6-9 17-1-2-3 1v-6l-11 1 1-7 7-13-1-5 2-6 3 2 1-2 3 1v2l4 1 8-3 15-5z" fill="#22D8D9"/>
<path transform="translate(334,111)" d="m0 0 9 3 7 7 8 11-1 4-9-11-3 7-13 2h-6l-2 2-6-1 9 9-9-2-2-4h-2l-2-2h-2v-11l5-3 5-5 6-4z" fill="#22D8D9"/>
<path transform="translate(312,64)" d="m0 0 1 3-7 6-9 4-5 2-22 2-14 2-33 2-18 2-19-1-19-8-5-1-16 4v-3l8-5 11-1 15 7 14 3 16-1 32-3 44-4 15-3z" fill="#20C8CD"/>
<path transform="translate(1208,153)" d="m0 0h1l1 15 2 5 2 16 1 2h3l3-14 4 4v24h-2v9l2 3v10h-2l-1 7h-1l-1-13-2-4h-5l-1 9-3-2-1-6z" fill="#32B6D9"/>
<path transform="translate(815,167)" d="m0 0 3 1 12 30 14 34 1 5-6 2v-2l-4 1-1 2h-2l-2 4-4 3-3-1 2-4-1-8-8-21-4-9v-2h4l7 14 2 2 1 6h2l6 11 3 1-4-16v-4l-2-1-2-10-2 1-11-29z" fill="#36A3CE"/>
<path transform="translate(278,87)" d="m0 0h6l1 3-5 6-26 12-19 9-13 4-6 1-9-2-2-1h-11l-10 5-3 4-3 6-2-1 1-6 6-9 6-4 13-1 6 1h16l10-3 19-9 18-8 6-3-4-2z" fill="#1FC9CE"/>
<path transform="translate(1522,145)" d="m0 0h6l5 4 1 2-1 9-2-1-1-7-1-1h-7l-1 1v63l1 6v22l-2 15h-4v-106z" fill="#2DACC9"/>
<path transform="translate(1426,145)" d="m0 0h7l8 7 20 30 29 43 10 15 3 4 2 7h-2l-8-11-4-1-6-9-4-8-2-3-2-5-5-7-4-4-7-11-9-14-3-7-10-14-7-7-11 2 1-4z" fill="#2DACCA"/>
<path transform="translate(1454,181)" d="m0 0 4 5 9 14 2 2 6 7 5 8 2 5 6 11 1 3-1 1h-5l-9-12-5-5-9-12-1-4-2-2-7-11v-4-2z" fill="#32B6D9"/>
<path transform="translate(1362,149)" d="m0 0h6l1 2v23l-1 8-2 1v-3h-2l-1 11-5 1-3-13-1-17v-10l2-2z" fill="#28C8D9"/>
<path transform="translate(570,209)" d="m0 0h1l1 16 3 8-1 2h4v-15l3-7h1l3 19 4 12 2 4v4l-4-2-4-7-2 2-4 2 1 4 1 6-1 2-3-1-6-13-3-11-1-7v-11l1 3 4 1z" fill="#37A2CE"/>
<path transform="translate(597,179)" d="m0 0 3 1-6 8-7 14-2 7-1 18h-1l-2-10-2 4-1 14h-4l-1-4-2-6v-16l1-4 2-1 1-7 2-5h1v5l4-1v-2l3-1 4-7z" fill="#32B7D9"/>
<path transform="translate(1522,150)" d="m0 0h7l2 2 1 7 2-2v19l-3 1-2 11-6 4h-1l-2-12v-28z" fill="#28C7D9"/>
<path transform="translate(1357,145)" d="m0 0h6l4 4-5 1-7 2v14l2 32v16 1l1 12-1 8h-1l-1 14-2 3-1-1-1-68v-30l4-6z" fill="#2FAACB"/>
<path transform="translate(426,201)" d="m0 0h3v3l3-1 2 1 5-1-1 2 5 5v7l-4-1 1 3-1 1h-6l-3-1h-3l-1 3-5 1-4-1-4-4 1-7 5-4 3-1v-3z" fill="#29C7DA"/>
<path transform="translate(896,145)" d="m0 0h97l3 2v3h-94l-11 2 2-4z" fill="#2CB1CD"/>
<path transform="translate(935,172)" d="m0 0h3l2 9 2 30-1 10 1 1 1 12-1 7-2-4-1 20-2 2-1-1-1-37z" fill="#2DB0CC"/>
<path transform="translate(819,185)" d="m0 0 2 2 6 16 3 2 2 10 2 5 3 12v4l-4-1-5-9v-2h-2l-3-8-3-9-9-19 1-2 4 6 3 1z" fill="#32B6D9"/>
<path transform="translate(66,283)" d="m0 0 4 1 4 4 2 9-3-1v-2l-4-1 2 31-3 2-3-3-2-8h-1l-1 10h-1l-2-15-2-1-1-10 3 1 3 9h2l1-15-1-2v-8z" fill="#36A3CD"/>
<path transform="translate(1438,180)" d="m0 0 6 2 9 12 7 11 2 4 10 14 5 5 8 10-1 3h-3l-1 3-22-33-19-28z" fill="#37A2CE"/>
<path transform="translate(320,59)" d="m0 0 3 1-8 7-9 8-13 5-21 2-10 2-35 2-15 2h-24l-13-5-10-4-10 1-7 3-8 7-1-2 5-8 6-1 13-3 13 5 10 4 22 1 26-3 22-1 23-3 13-1 12-5 6-4 2-2 3-7z" fill="#22D9DA"/>
<path transform="translate(772,189)" d="m0 0 2 1-1 14-2 1-2 9-4 10-3 8-1-2h-2l-1 6-5 13-4 7-3-1 1-5 15-37z" fill="#37A2CE"/>
<path transform="translate(796,173)" d="m0 0h6v2h2l7 10 7 16 6 13v2h-2l-6-12-5-2-9-22-1-3-4 1-11 26-5 1 2-6 5-10 4-12z" fill="#2EABCA"/>
<path transform="translate(159,72)" d="m0 0h6l15 7 14 3 18-1 2 1 10 1-1 2-18 2-19-1-19-8-5-1-16 4v-3l8-5z" fill="#1FCACE"/>
<path transform="translate(160,231)" d="m0 0 8 1 8 5 6 8 2 5v8l-3 9-5 5h-2l1-4 3-5v-16l-7-8-10-2-9 2-8 7-1-4 6-7z" fill="#2FABCC"/>
<path transform="translate(326,107)" d="m0 0h13l6 3 8 8 6 8-1 5 4 2v3l-7-6-8-11-6-5-7-2-10 3-7 5-5 5-1-3 6-9 5-4z" fill="#1FCACE"/>
<path transform="translate(478,257)" d="m0 0h1v12l-1 5h2v7l2 5 1 15-1 7-6 1-6-9-3-9h3l1-2 5 10 2 1-3-22v-12l2-1z" fill="#36A4CE"/>
<path transform="translate(798,144)" d="m0 0 9 3 5 7v5l-2-1-1-3-6-5h-6l-7 6-10 29-1 2-5-1 3-10 10-24 4-5z" fill="#2DADCA"/>
<path transform="translate(812,202)" d="m0 0h4l7 14 2 2 1 6h2l6 11 2 2-2 3h-2l-2 4-4 3-3-1 2-4-1-8-8-21-4-9z" fill="#36A2CE"/>
<path transform="translate(364,192)" d="m0 0 3 1 7 16 6 8 11 8 8 7 3 9v7l-3 8-1 2-4 1 1-5 2-3v-15l-7-7-11-7-2-4-4-2-3-6-4-10-2-3z" fill="#2DAECC"/>
<path transform="translate(951,188)" d="m0 0h2v54h-2l-2-2-2 3v-19l2-33z" fill="#2DACC9"/>
<path transform="translate(1516,211)" d="m0 0 4 1 2 9v22l-2 15h-4z" fill="#36A3CD"/>
<path transform="translate(1475,206)" d="m0 0 3 1 22 33 3 4 2 7h-2l-8-11-4-1-6-9-4-8-2-3-2-5-3-6z" fill="#38A1CE"/>
<path transform="translate(188,192)" d="m0 0h2l-2 4-8 5-23 10-16 6h-7l-2-3 20-6 23-10 10-4z" fill="#2EACCB"/>
<path transform="translate(1094,144)" d="m0 0 7 2 2 2v3l-11-1-9 8-5 17-7 20-1-4 1-7 1-6 10-25 6-7z" fill="#2EACCA"/>
<path transform="translate(1419,183)" d="m0 0h1l2 14 1 26 1 9 2 8h-2v2h-2l-1-10-3-3v-43z" fill="#2DACC9"/>
<path transform="translate(1110,208)" d="m0 0 4 2 3 3 1 4 2 5h2l6 14v6l-2-1-1 3-4 3h-2l1-4v-8l-10-25z" fill="#36A2CE"/>
<path transform="translate(312,64)" d="m0 0 1 3-7 6-9 4-5 2-22 2-5 1h-8l1-2 15-2v-2l2-1 18-2 10-3z" fill="#1FCACE"/>
<path transform="translate(366,90)" d="m0 0 4 2 13 11 11 9 8 7-1 3 8 7 2 3-4-2-12-11-11-10-11-9-8-8z" fill="#1FCACE"/>
<path transform="translate(149,288)" d="m0 0 1 2 3-1 1 3-5 11-8 20-4 1-2 2 2-10 7-16z" fill="#35A4CE"/>
<path transform="translate(1063,200)" d="m0 0 2 1v11l-7 17-3 8-1-3v-2l-3 4-2 1 1-5 12-30z" fill="#36A4CE"/>
<path transform="translate(408,284)" d="m0 0 4 3-7 18-1 5v12l-4 4-2-9v-8z" fill="#37A2CF"/>
<path transform="translate(466,208)" d="m0 0h2v2h2l3 9 2 4 2 23 1 10-3-2h-2l-4-35-4-10z" fill="#2EACCB"/>
<path transform="translate(815,167)" d="m0 0 3 1 12 30 3 8-4-1-2 1-11-29z" fill="#2DADCB"/>
<path transform="translate(142,275)" d="m0 0 3 1-2 12-6 16-8 20-4 5-2-2 16-39z" fill="#37A3CF"/>
<path transform="translate(454,279)" d="m0 0 3 4 10 21 6 11 3 8v6h-1l-3-9-4-8-4-2-12-26z" fill="#35A4CE"/>
<path transform="translate(939,214)" d="m0 0h1l1 7 1 1 1 12-1 7-2-4-1 20-2 2-1-1v-37l2-2z" fill="#35A3CD"/>
<path transform="translate(1354,202)" d="m0 0h1l1 13h1l1 12-1 8h-1l-1 14-2 3-1-1v-40h2z" fill="#36A3CD"/>
<path transform="translate(83,287)" d="m0 0 3 1 7 15v7l5 14-1 2-8-16-8-18z" fill="#35A4CD"/>
<path transform="translate(1092,173)" d="m0 0 6 1 6 8 6 13 2 4-1 3v-2l-5-1-4-8-5-12-5-2-2 6-2-1 2-7z" fill="#2EACCB"/>
<path transform="translate(597,179)" d="m0 0 3 1-6 8-7 14-2 6-4 2-1-5 6-15 7-8z" fill="#2EACCB"/>
<path transform="translate(1223,180)" d="m0 0 2 1v24h-2v9l2 3v10h-2l-1 7h-1v-37l1-16z" fill="#2DACC9"/>
<path transform="translate(424,197)" d="m0 0h13l7 3 2 4-6-1-6-2-8 1-10 6-4 3-1-2 4-6z" fill="#2EABCA"/>
<path transform="translate(1114,176)" d="m0 0 3 1 10 25v6l-3 2-9-25z" fill="#2EACCB"/>
<path transform="translate(368,108)" d="m0 0 4 1 13 10 13 11 4 4-4 1-14-12-10-8-6-5z" fill="#21C9D0"/>
<path transform="translate(796,173)" d="m0 0h6l-4 2 1 2-2 1-11 26-5 1 2-6 5-10 4-12z" fill="#2EB1D0"/>
<path transform="translate(1074,246)" d="m0 0h43v2l-5 1h-34l-7-1z" fill="#36A3CD"/>
<path transform="translate(332,51)" d="m0 0 8 1 8 4v3l-11-3-10 1-10 4v-3l5-4 4-2z" fill="#1FCACE"/>
<path transform="translate(1530,176)" d="m0 0h4v26l-2 1-2 13h-1v-14z" fill="#2DACC9"/>
<path transform="translate(304,162)" d="m0 0h15l1 3h-12l-5 2-8 1-11-1-4-2v-2h16z" fill="#23C2CE"/>
<path transform="translate(896,150)" d="m0 0h6l-3 2-5 3-1 5 30 2-2 2h-28l-3-5v-7z" fill="#1EC9CC"/>
<path transform="translate(411,232)" d="m0 0h4l1 2v18l-3 5-1 5-3-3 2-10z" fill="#2EACCB"/>
<path transform="translate(1438,180)" d="m0 0 6 2 9 12 5 8-2 2h-3l-14-21z" fill="#2EABCA"/>
<path transform="translate(238,146)" d="m0 0 7 1 32 13 1 3-10-2-16-7-14-7z" fill="#21C8CF"/>
<path transform="translate(996,148)" d="m0 0 2 2-1 4-8-3h-86l-1-2h90l4 1z" fill="#1ECACD"/>
<path transform="translate(73,239)" d="m0 0 2 1-1 7v11l1 8-4 2-2-6v-17z" fill="#2EACCB"/>
<path transform="translate(948,217)" d="m0 0h1l1 6 3-1v20h-2l-2-2-2 3v-19z" fill="#36A2CD"/>
<path transform="translate(161,121)" d="m0 0 2 2-6 7-7 13-2-1-3 3 1-6 5-10 8-7z" fill="#1FCACE"/>
<path transform="translate(1533,213)" d="m0 0h1v22h-3l-2 7-1-3v-16l1-6 3-1z" fill="#36A3CD"/>
<path transform="translate(781,246)" d="m0 0h40v2l-5 1h-31l-5-1z" fill="#36A3CD"/>
<path transform="translate(779,213)" d="m0 0 2 1-1 5-7 18h-2l-1 2-2-4 4-11h2l2-9h3z" fill="#36A3CE"/>
<path transform="translate(487,294)" d="m0 0 4 1 2 14-1 3h-3l-1 3-2-8v-12z" fill="#36A3CE"/>
<path transform="translate(401,276)" d="m0 0h2l1 5-10 24-3 4-2-1 4-6 2-8 1-6z" fill="#36A4CE"/>
<path transform="translate(1430,219)" d="m0 0 2 1 2 3v11l-1 2h-2l-1 8-3-3 2-18z" fill="#36A3CD"/>
<path transform="translate(1421,210)" d="m0 0h1l2 22 2 8h-2v2h-2l-1-10-3-3v-10l2-2z" fill="#36A3CD"/>
<path transform="translate(1130,217)" d="m0 0h3l7 17v2l-3 1-1 2-3-5-3-11z" fill="#36A3CE"/>
<path transform="translate(446,205)" d="m0 0 5 2 3 5v16l-4 4v-11l1-3-4-10z" fill="#2DADCA"/>
<path transform="translate(66,201)" d="m0 0 1 2-5 5-7 4-12 3h-3l2-4 17-6z" fill="#2EACCB"/>
<path transform="translate(77,300)" d="m0 0 3 3 5 10 4 11-1 4-2-2-10-23z" fill="#37A3CF"/>
<path transform="translate(1087,183)" d="m0 0 2 1-3 9-5 12h-3l-3 6-1-3 10-19z" fill="#2EACCC"/>
<path transform="translate(1225,180)" d="m0 0h1v51h-1l-1-14-2-3v-9l2-3z" fill="#29C8DA"/>
<path transform="translate(486,246)" d="m0 0 2 3v14l-2 2-1-2-2 1v-16z" fill="#2EABCA"/>
<path transform="translate(1208,201)" d="m0 0 4 3 1 18-2 4-2-2-1-6z" fill="#35A3CD"/>
<path transform="translate(450,244)" d="m0 0 3 1 3 12h-2l2 10-3-4-4-11v-7z" fill="#2EACCA"/>
<path transform="translate(398,237)" d="m0 0 4 4v7l-3 8-1 2-4 1 1-5 2-3z" fill="#2EACCC"/>
<path transform="translate(1366,191)" d="m0 0h2v20h-2l-1 5h-1v-15l1-9z" fill="#2DACC9"/>
<path transform="translate(312,135)" d="m0 0 2 1v2h2l3 4v2l4 2 5 5-4-1h-3l-8-7-2-4z" fill="#20C9CE"/>
<path transform="translate(265,76)" d="m0 0h8v2l-6 2-9 1h-9v-3z" fill="#2DACCA"/>
<path transform="translate(1208,153)" d="m0 0h1l1 15 1 1v23l-2-4-1-4z" fill="#2EAECC"/>
<path transform="translate(248,89)" d="m0 0h14l2 2-12 2h-10l-2-2z" fill="#22D4D8"/>
<path transform="translate(308,92)" d="m0 0h13l4 3-1 1h-18z" fill="#23D5D9"/>
<path transform="translate(1364,220)" d="m0 0 4 4v11h-2l-2 6h-1v-19z" fill="#36A3CD"/>
<path transform="translate(1070,219)" d="m0 0 1 3h2l-1 5-3 8-4-1-2 4 1-5z" fill="#36A2CE"/>
<path transform="translate(359,211)" d="m0 0 3 1 2 5v13l-2 3-2-2v-13z" fill="#2DADCB"/>
<path transform="translate(465,159)" d="m0 0h12l3 3v1l-12-1-8 1-3-3z" fill="#1EC9CD"/>
<path transform="translate(213,92)" d="m0 0h13l5 2v1l-9 1h-11l-2-2z" fill="#22D5D9"/>
<path transform="translate(478,257)" d="m0 0h1v12l-1 5h2l-1 6h-3l-1-2v-12l2-1z" fill="#33A6CC"/>
<path transform="translate(950,207)" d="m0 0 3 1v14l-4 3v-17z" fill="#33B7DA"/>
<path transform="translate(789,189)" d="m0 0 2 1-3 9-3 6h-4l2-6 5-9z" fill="#2EACCB"/>
<path transform="translate(896,150)" d="m0 0h6l-3 2-5 3-1 5h3v2l2 1-5 1-3-5v-7z" fill="#22C3CD"/>
<path transform="translate(1221,209)" d="m0 0h1l2 7 1 1v10h-2l-1 7h-1z" fill="#35A3CD"/>
<path transform="translate(354,199)" d="m0 0 5 2 4 9 2 4-1 4-3-6-3-1-4-10z" fill="#32B8D9"/>
<path transform="translate(1357,145)" d="m0 0h6l4 4-5 1-7 2-3 1 2-5z" fill="#2FACCC"/>
<path transform="translate(476,280)" d="m0 0 4 1 2 7-1 6-4-1z" fill="#35A8D1"/>
<path transform="translate(643,148)" d="m0 0 15 2 6 2-4 1-7-1h-7l-4-1-12-1v-1z" fill="#1ECACD"/>
<path transform="translate(136,116)" d="m0 0 1 4-7 13h-2l-1-4 8-12z" fill="#20C9CF"/>
<path transform="translate(462,271)" d="m0 0 3 4 4 9-2 4-7-14v-2z" fill="#37A2CE"/>
<path transform="translate(439,252)" d="m0 0 4 2 7 14-1 2-4-7-3-1-4-9z" fill="#2DADCA"/>
<path transform="translate(111,202)" d="m0 0 2 2-7 8-9 5 2-4z" fill="#2FACCD"/>
<path transform="translate(423,254)" d="m0 0h2l-1 5-4 8h-3l-1-2 5-9z" fill="#2FAACB"/>
<path transform="translate(280,163)" d="m0 0h7l12 3-4 2-11-1-4-2z" fill="#1ECACD"/>
<path transform="translate(320,59)" d="m0 0 3 1-8 7-6 6-2-1 5-5 3-7z" fill="#22D7D9"/>
<path transform="translate(1214,145)" d="m0 0h6l2 3-7 2-6 2 2-4z" fill="#2EACCA"/>
<path transform="translate(1432,202)" d="m0 0 2 2v9h-2v2h-2v-11z" fill="#2DACC9"/>
<path transform="translate(1419,202)" d="m0 0 2 4v12l-3 1v-16z" fill="#33B7DA"/>
<path transform="translate(68,286)" d="m0 0 4 2 1 4-2 2-2-1v9h-1l-1-15z" fill="#4894DC"/>
<path transform="translate(445,201)" d="m0 0 5 5-4-1 3 5-1 3-1-3-3-1v-3l-4-1 2-3 3 1z" fill="#2FBDDA"/>
<path transform="translate(164,275)" d="m0 0 3 1-5 5-4 2-4-1 6-5z" fill="#35A5CF"/>
<path transform="translate(222,206)" d="m0 0h6l1 3-3 1h-9l-1-3z" fill="#33B6DA"/>
<path transform="translate(144,80)" d="m0 0h5l-2 4-7 6-1-2z" fill="#22D6D9"/>
<path transform="translate(1223,202)" d="m0 0 2 3v12l-3-3v-9z" fill="#33B7DA"/>
<path transform="translate(217,80)" d="m0 0h9l2 2-4 1h-10l-2-2z" fill="#2DACCA"/>
<path transform="translate(429,200)" d="m0 0h7l4 2-4 2-3 1-4-1z" fill="#2FBDDA"/>
<path transform="translate(230,128)" d="m0 0h2l-1 3-3 2-2 5-2-1-1-4 3-3z" fill="#1FCBCE"/>
<path transform="translate(364,192)" d="m0 0 3 1 3 9h-3l-3-5z" fill="#2DB1CD"/>
<path transform="translate(403,150)" d="m0 0 9 2v4l-10-4z" fill="#21C9CF"/>
<path transform="translate(817,201)" d="m0 0 3 4 4 9v2h-2l-6-12z" fill="#2FB0CF"/>
<path transform="translate(133,234)" d="m0 0 1 4-4 5h-2l1-6h2v-2z" fill="#2DAECB"/>
<path transform="translate(79,206)" d="m0 0 2 1-2 5-3 4-1-4z" fill="#34B5DA"/>
<path transform="translate(142,275)" d="m0 0 3 1-1 9-3-1z" fill="#35A9D2"/>
<path transform="translate(105,254)" d="m0 0 6 1-1 3h-7l-1-3z" fill="#2FACCD"/>
</svg>
