<?xml version="1.0" encoding="UTF-8"?>
<svg version="1.1" viewBox="0 0 1160 1160" width="290" height="290" xmlns="http://www.w3.org/2000/svg">
<path transform="translate(0)" d="m0 0h1160v1160h-1160z" fill="#FEFEFE"/>
<path transform="translate(0)" d="m0 0h1160v1160h-1160zm684 78-11 3-10 6-15 15v2l-4 2-10 7-12 6-14 4-23 4-42 4-37 3-56 5-32 2-11 1h-11l-10-2-21-6-28-13h-9l-15 4-13 8-11 11-6 12-4 13-1 27-4 17-7 14-9 13-8 10-18 22-12 14-11 13-9 10-7 8-18 22-5 5-14 17-10 13-9 11-8 7-14 8-27 11-14 7-5 4-9 12-5 13-2 8v15l4 12 9 12 9 10 7 8 7 10 6 13 5 25 3 22 4 54 2 29 6 56 1 15v31l-4 13-8 19-4 13-1 6v14l5 13 6 10 9 9 14 8 8 3 24 1 16 3 12 3 10 5 17 11 13 10 15 13 13 11 10 8 14 12 11 9 12 11 8 7 13 11 10 8 11 9 14 11 5 5 9 16 12 28 5 10 11 12 14 8 9 3h20l12-7 11-10 8-7 11-10 10-6 15-5 17-3 20-3 45-4 37-2 63-6h44l18 6 21 9 8 3 6 1h10l13-5 11-7 9-8 7-11 3-7 1-30 6-22 8-16 8-13 10-13 11-13 9-11 11-12 7-8 13-16 10-11 8-10 12-14 26-32 5-5 9-8 6-4 36-16 10-6 10-10 7-14 2-10v-18l-3-9-6-10-14-15-9-11-7-14-5-21-4-25-4-43-3-45-4-42-3-31v-22l4-18 12-26 2-12v-16l-2-9-6-10-9-10-10-7-10-5-3-1-42-1-15-6-15-8-14-10-42-36-11-9-13-12-10-9-14-12-13-11-11-9-14-12-11-9-9-11-6-12-11-28-7-10-9-10-10-6-7-3-10-2z" fill="#FEFEFE"/>
<path transform="translate(684,78)" d="m0 0h11l13 3 13 7 8 8 7 10 5 10 10 26 7 11 7 8 11 9 10 9 22 18 15 13 30 27 10 8 15 13 14 12 16 13 18 11 15 7 6 2 42 1 9 4 13 8 8 8 7 11 2 5 1 6v16l-2 12-13 29-3 15v22l5 50 4 49 2 31 3 31 6 35 5 16 7 12 14 15 9 11 6 11 1 5v18l-2 10-7 14-11 11-15 8-25 11-8 4-10 8-5 5-8 9-9 11-11 14-10 11-11 14-12 13-7 9-9 10-7 8-12 14-9 11-12 15-9 14-8 16-5 16-2 8-1 30-7 14-7 8-11 8-14 7-4 1h-10l-9-2-34-14-10-3h-44l-63 6-37 2-45 4-33 5-16 5-10 5-11 9-9 9-8 7-13 9-4 2h-20l-13-5-11-7-10-11-7-14-11-26-8-14-5-5-16-13-22-18-13-11-12-11-11-9-14-12-13-11-10-8-15-13-14-11-10-7-14-9-14-5-13-3-8-1-24-1-16-7-9-7-9-10-6-13-2-6v-14l3-14 10-24 4-13v-31l-2-24-6-59-2-34-4-46-4-24-4-17-8-15-10-11-9-11-8-10-4-8-2-7v-15l5-16 4-8 9-11 10-6 27-11 16-8 11-8 9-10 10-13 13-16 6-8 5-5 9-10 8-10 18-20 9-11 13-15 8-10 9-11 12-16 8-14 4-13 2-9 1-27 4-13 6-12 12-12 12-7 15-4h9l31 14 18 5 10 2h11l24-2 30-2 66-6 26-2 39-4 20-4 15-5 13-8 6-5h2l2-4 14-14 11-6zm-125 85-30 4-36 3-38 5-31 2-21 4-13 5-9 7-10 9-8 7-13 11-15 10-10 11-9 14-11 27-19 50-18 48-7 21-2 11v6l1 1h10l22-5 30-10 36-16 23-10 10-7 12-11 10-11 11-14 8-7 10-6 7-2h13l11 2 14 7 9 9 7 11 3 9v11l-4 15-8 12-8 8-10 6-12 4h-17l-12-4-13-2h-17l-20 5-27 11-37 15-25 11-11 8-10 9-6 10-11 15-9 9-11 7-18 7h-9l-12-6-11-7-7-8-8-15-2-6v-17l5-14 6-9 8-7 11-9 12-11 15-15 8-18 12-33 16-42 4-9v-3l-5 1-10 11-11 14-10 11-8 10-11 13-9 11-11 13-10 13-14 18-9 13-5 10-1 5-2 28-1 23-3 6v29l7 22 7 17 14 29 11 24 5 12 18 40 7 13 9 12 4-1 9-8 8-14 14-31 15-37 8-21 3-14v-27l-2-9v-28l8-16 7-8 8-7 15-6h17l14 7 9 7 9 12 7 14v17l-6 15-4 6-7 7-17 12-11 7-11 11-7 12-12 27-12 30-9 21-6 16-1 5v40l3 15v13l-5 16-10 15-5 4-14 7-8 2h-15l-18-8-10-8-8-15-2-12-1-7v-8l3-19v-24l-8-26-16-34-12-28-4-10-3-6-4-2 1 52 1 10v9l3 21 6 50 4 20 6 15 8 10 6 7h2l2 4 10 12 14 20 4 6 12 9 16 8 107 39 40 13 5 1h7l2-5v-11l-3-13-10-29-13-30-11-25-8-16-7-9-7-8-19-14-10-9-8-8-4-7-1-4v-20l3-9 6-10 9-10 7-4 16-4h11l12 3 10 6 8 8 8 13 2 5v20l-6 25v21l6 18 11 28 16 37 9 20 11 18 4 5 31 20 7 7 8 13 4 12v14l-5 12-6 10-8 9-11 6-13 4h-19l-14-9-10-11-8-10-12-16-9-8-16-8-71-27-23-9h-5l2 4 9 9 17 13 14 12 8 7 10 9 14 11 12 10 13 10 11 9 16 12 13 6 12 2 10 1 31 1 7 3h36l16-6 41-18 42-19 28-13 25-12 12-7v-8l-6-7-11-7-16-8-34-15-35-13-13-4-6-1h-16l-22 1h-32l-11-6-8-7-7-10-5-12-1-3v-10l3-12 7-14 5-7 14-8 4-1h28l12 6 11 11 11 15 9 14 9 8 13 8 23 10 27 11 28 11 21 7 6 1h27l24-8h8l14 4 12 7 7 7 8 13 3 7v24l-6 15-8 10-14 10-6 3h-20l-19-3h-33l-24 8-30 13-34 16-15 8-1 3 20-1 69-7 79-9 10-3 10-6 8-7 5-5 9-10 10-8 22-14 8-11 6-10 12-29 27-72 13-36 3-11 1-12-2-4h-17l-20 5-25 9-36 15-20 9-15 10-11 10-14 19-7 9-9 7-11 5-5 1h-11l-10-2-12-6-9-9-7-10-4-11v-16l3-10 6-12 5-6 11-8 13-4h12l27 6h25l13-4 39-16 30-12 24-10 8-4 5-4v-2l4-2 9-12 10-15 6-8 10-9 10-5 8-2 22 1 11 6 10 9 7 10 4 10 2 8v8l-3 15-7 9-11 12-15 11-9 7-9 10-7 12-10 24-11 29-11 30-8 18v4l4-2 14-14 9-11 11-14 14-17v-2h2l11-14 11-13 11-14 8-9 12-17 6-10 5-15 1-12v-19l2-13 4-17v-18l-3-11-7-21-7-16-8-16-13-29-6-13-9-20-14-29-6-11-6-6-6 2-8 7-9 13-13 29-11 27-13 34-3 12v26l3 11v27l-10 19-3 3v2l-4 2-8 5-8 3h-27l-10-5-10-9-8-10-3-8-1-6v-15l2-10 6-11 7-8 10-8 24-15 7-8 10-17 14-34 10-24 8-21 4-16v-25l-2-18-1-6v-22l5-14 6-9 8-7 13-7h27l12 5 9 6 7 8 6 9 1 6v30l-2 9v13l1 15 7 25 7 16 14 28 15 35 4 6 2 1 1-4-4-30-5-57-6-52-3-24-8-21-6-8-12-12-8-10-8-12-9-12-10-8-9-5-15-7-38-15-42-16-27-10-24-8-14-3h-9l-3 4v14l3 16 7 20 11 27 5 10 4 4 13 30 11 16 8 7 16 11 14 12 6 9 4 11v21l-7 16-10 8-14 8-6 2h-21l-14-7-10-9-7-11-2-5v-27l3-17v-14l-2-16-9-28-5-17-12-28-11-25-10-16-7-7-10-7-15-10-8-6-6-5-6-9-3-10v-20l4-11 7-12 3-3v-2l4-2 8-6 7-3h26l10 4 10 8 10 11 11 15 6 8 11 10 11 7 23 10 39 15 21 6 8 5 9 3h4l1-5-15-14-14-11-17-13-7-4-15-13-14-12-13-10-14-12-14-11-11-8-13-4-10-2-60-4h-24l-13 4-84 38-37 17-23 11-6 5v6l7 8 15 10 11 5 75 30 7 2h73l10 4 10 7 7 8 5 10 3 8v19l-7 16-6 7-9 7-13 5-6 1h-17l-9-3-10-7-7-8-18-27-6-7-13-8-27-13-30-12-35-13-18-4-2-1h-11l-30 4-8 2h-13l-12-5-11-7-9-11-5-8-4-14 1-13 2-9 10-16 5-6 12-6 11-3 7-1h9l16 4h26l17-5 19-8 16-8 21-10 29-12 6-4v-2z" fill="#4894DF"/>
<path transform="translate(684,78)" d="m0 0h11l13 3 13 7 8 8 7 10 5 10 10 26 7 11 7 8 11 9 10 9 22 18 15 13 30 27 10 8 15 13 14 12 16 13 18 11 15 7 6 2 42 1 9 4 13 8 8 8 7 11 2 5 1 6v16l-2 12-13 29-3 15v22l5 50 4 49 2 31 3 31 3 17-1 10-4 3-8-8-7-3-9 3-8 6-4 5-4 7-6-1-4 3-7-18-8-16-9-19-9-20-11-25-16-33-5-9-5-5-6 2-8 7-8 12-13 29-11 27-13 34-3 12v26l3 11v27l-10 19-4 5-8 6-12 5h-27l-10-5-10-9-6-7-4-7-2-5-1-6v-15l2-10 6-11 8-9 10-8 24-15 6-7 10-17 14-34 10-24 8-21 4-16v-25l-2-18-1-6v-22l5-14 6-9 9-8 13-7h27l12 5 9 6 8 9 6 9 1 6v30l-2 9v13l1 15 7 25 7 16 14 28 15 35 4 6 1-3-4-30-5-57-6-52-3-24-8-21-6-8-12-12-8-10-8-12-9-12-12-9-16-8-43-17-42-16-27-10-24-8-14-3h-9l-2 3v14l3 16 7 20 11 27 4 8v2l3 1 6 12 9 21 11 16 10 8 17 12 13 12 5 10 3 8v21l-7 16-7 6-14 9-10 4h-21l-14-7-11-10-7-11-2-5v-27l3-17v-14l-2-16-9-28-5-17-12-28-11-25-10-16-10-9-18-12-10-7-8-7-6-9-3-10v-20l4-11 7-12 4-5 10-8 9-4h26l10 4 10 8 7 7 13 17 7 10 11 10 11 7 23 10 39 15 21 6 8 5 13 4v-5l-14-13-14-11-17-13-7-4-15-13-14-12-13-10-14-12-14-11-11-8-13-4-10-2-60-4h-24l-13 4-84 38-37 17-23 11-5 4v6l7 8 16 10 21 9 28 11 32 13 10 3h73l10 4 10 7 8 9 5 10 3 8v19l-7 16-7 8-9 7-13 5-6 1h-17l-9-3-10-7-8-9-18-27-5-6-13-8-27-13-30-12-35-13-18-4-2-1h-11l-30 4-8 2h-13l-12-5-11-7-12-14-5-12-2-8 1-13 2-9 10-16 6-7 12-6 11-3 7-1h9l16 4h26l17-5 19-8 16-8 21-10 29-12 5-3 1-2-37 5-36 3-38 5-31 2-21 4-13 5-9 7-10 9-8 7-13 11-15 10-9 10-9 14-11 27-19 50-18 48-7 21-2 11v6h10l22-5 30-10 36-16 23-10 10-7 12-11 9-10 11-14 9-8 10-6 7-2h13l11 2 14 7 10 10 7 11 3 9v11l-4 15-8 12-9 9-10 6-12 4h-17l-12-4-13-2h-17l-20 5-27 11-37 15-25 11-11 8-9 8-6 10-11 15-10 10-11 7-18 7h-9l-12-6-11-7-8-9-8-15-2-6v-17l5-14 6-9 9-8 11-9 12-11 14-14 8-18 12-33 16-42 5-12-6 3-12 14-8 10-9 10-8 10-11 13-9 11-11 13-10 13-14 18-5 7-5-2-2 3h-2v2l-4-1v2h-2l-1 3-9-2-4-5h-2l3-9 5-10 3-7h2l2-6v-6l14-17 8-10 9-10 9-11 8-10 5-5 11-12 9-11 13-15 8-10 9-11 12-16 8-14 4-13 2-9 1-27 4-13 6-12 12-12 12-7 15-4h9l31 14 18 5 10 2h11l24-2 30-2 66-6 26-2 39-4 20-4 15-5 13-8 6-5h2l2-4 14-14 11-6z" fill="#22CBDB"/>
<path transform="translate(148,372)" d="m0 0h2l-1 7-2 3h-2l-2 9h-2l-1 5-3 5-3 7 3-1 3 4v2h5l4 1 1-2h2v-2l4 1v-2h2l2-4 4 2-2 5-6 12-1 5-2 28-1 23-3 6v29l7 22 7 17 14 29 11 24 5 12 18 40 7 13 8 11 4-1 8-7 8-14 14-31 15-37 8-21 3-14v-27l-2-9v-28l8-16 7-8 9-8 15-6h17l14 7 9 7 10 13 7 14v17l-6 15-4 6-8 8-17 12-11 7-10 10-7 12-12 27-12 30-9 21-6 16-1 5v40l3 15v13l-5 16-10 15-6 5-14 7-8 2h-15l-18-8-10-8-6-10-4-9-2-16v-8l3-19v-24l-8-26-16-34-12-28-4-10-3-6-3-2 1 9 1 43 1 10-1 8-2-3-1 2h-2v2h-2l-3-7-3-4v-2l-4 1-7-2-2-2-3-8-3-3-2 4-4-54-4-29-5-21-8-15-10-11-9-11-8-10-4-8-2-7v-15l5-16 4-8 9-11 10-6 27-11 16-8 11-8 9-10z" fill="#4894DF"/>
<path transform="translate(882,385)" d="m0 0h27l12 5 9 6 8 9 6 9 1 6v30l-2 9v13l1 15 7 25 7 16 14 28 15 35 4 6 1-3-4-30-5-57-6-52-3-24-8-21-2-4 11 2 4 5 6 3v2l5 2 3 2 3-1h2l1-4h2l1-5 3-3 4-2v-2h2l1-2 1 4-2 11v22l5 50 4 49 2 31 3 31 3 17-1 10-4 3-8-8-7-3-9 3-8 6-4 5-4 7-6-1-4 3-7-18-8-16-9-19-9-20-11-25-16-33-5-9-5-5-6 2-8 7-8 12-13 29-11 27-13 34-3 12v26l3 11v27l-10 19-4 5-8 6-12 5h-27l-10-5-10-9-6-7-4-7-2-5-1-6v-15l2-10 6-11 8-9 10-8 24-15 6-7 10-17 14-34 10-24 8-21 4-16v-25l-2-18-1-6v-22l5-14 6-9 9-8z" fill="#30B2DA"/>
<path transform="translate(449,319)" d="m0 0h13l11 2 14 7 10 10 7 11 3 9v11l-4 15-8 12-9 9-10 6-12 4h-17l-12-4-13-2h-17l-20 5-27 11-37 15-25 11-11 8-9 8-6 10-11 15-10 10-11 7-18 7h-9l-12-6-11-7-8-9-8-15-2-6v-17l5-14 6-9 9-8 11-9 12-11 14-14 8-18 12-33 4-10 2 2v7l-2 6-1 4-2 3-2 8h-3v6l1 7-2 1 1 3-4 14-1 2h6l4-1 4 1 2 1v-2l5 1v2l4-1-2 11-1 13h10l22-5 30-10 36-16 23-10 10-7 12-11 9-10 11-14 9-8 10-6zm-195 3h3l-2 9-3-1z" fill="#30B2DA"/>
<path transform="translate(148,372)" d="m0 0h2l-1 7-2 3h-2l-2 9h-2l-1 5-3 5-3 7 3-1 3 4v2h5l4 1 1-2h2v-2l4 1v-2h2l2-4 4 2-2 5-6 12-1 5-2 28-1 23-3 6v29l7 22 7 17 14 29 11 24 5 12v5l2 7-2 4h-2v-2l-10-3-5-3h-2v9l1 14-1 3-1 4-3-4-9-19-12-28-4-10-3-6-3-2 1 9 1 43 1 10-1 8-2-3-1 2h-2v2h-2l-3-7-3-4v-2l-4 1-7-2-2-2-3-8-3-3-2 4-4-54-4-29-5-21-8-15-10-11-9-11-8-10-4-8-2-7v-15l5-16 4-8 9-11 10-6 27-11 16-8 11-8 9-10z" fill="#30B2DA"/>
<path transform="translate(574,486)" d="m0 0h10l26 6 15 6 11 7 4 6v12l-12 12-9-1-24-8-5-1h-22l-10 4-9 5-6 5-8 11-5 12-2 10 1 16 3 10 7 14 10 11 9 6 10 4 5 1h17l20-8 11-5 6 1 8 6 5 6v11l-5 5-9 8-16 8-7 2h-43l-11-4-19-10-14-12-9-11-9-16-5-12-2-8v-33l4-15 7-16 10-13 10-10 13-9 15-7 18-5z" fill="#4795DF"/>
<path transform="translate(323,456)" d="m0 0h17l14 7 9 7 10 13 7 14v17l-6 15-4 6-8 8-17 12-11 7-10 10-7 12-12 27-12 30-5 11-4 1-3-1v-2h-2l-1-10h-2v-2l-9-1v2l-4 4h-2l-1 4-5 2-1 2-1-5 13-31 11-27 6-16 3-14v-27l-2-9v-28l8-16 7-8 9-8z" fill="#30B2DA"/>
<path transform="translate(449,319)" d="m0 0h13l11 2 14 7 10 10 7 11 3 9v11l-4 15-8 12-9 9-10 6-12 4h-17l-12-4-13-2h-17l-20 5-49 20-3-1 4-8 3-4-2-4 3-5 7-5 10-4 14-7 6-2 1-2 5-3 2-4 1-7 2-3 1-4 13-12 9-10 11-14 9-8 10-6z" fill="#22CBDB"/>
<path transform="translate(759,376)" d="m0 0 5 3 13 30 11 16 10 8 17 12 13 12 5 10 3 8v21l-7 16-7 6-14 9-10 4h-21l-14-7-11-10-7-11-2-5v-27l3-17v-14l-2-16-7-21-1-15 5 2 9 12 6 5 2-6v-9l-3-7 2-8z" fill="#30B2DA"/>
<path transform="translate(817,588)" d="m0 0 1 2-5 11-2 13 1 4 4 1 6 4 5 4 4 10 3 8 1 3h3l1-5 2 4 3 11v27l-10 19-4 5-8 6-12 5h-27l-10-5-10-9-6-7-4-7-2-5-1-6v-15l2-10 6-11 8-9 10-8 24-15 6-7z" fill="#4894DF"/>
<path transform="translate(886,399)" d="m0 0h8l16 4 6 5 4 7-1 9-5 4-10 4-11 1-14 4h-10l-7-5-3-5v-8l3-6 8-6 7-3 1-2 8-1z" fill="#22CCDC"/>
<path transform="translate(466,404)" d="m0 0h9l3 1 4 1-4 4-14 5h-17l-12-4v-2l-3-1v-1h11l5-1z" fill="#2FB4DA"/>
<path transform="translate(561,129)" d="m0 0h5l1 2-14 2v2h-2l-2 4-7 1-1 1h-7l-8-4v-1l-10-1v-2l37-3z" fill="#2FB4DA"/>
<path transform="translate(254,322)" d="m0 0h3l-2 9-3-1zm-3 8 2 2v7l-2 6-1 4-2 3-2 8h-3l-2 4-3 3 1-5 10-27z" fill="#2BBBDA"/>
<path transform="translate(207,302)" d="m0 0 2 1-2 5-5 4h-2v2l-5 2 2-4 5-5z" fill="#2CB9DA"/>
<path transform="translate(180,333)" d="m0 0 2 1v2l-4 4h-2v2l-4 3-2-1z" fill="#2EB6DA"/>
<path transform="translate(561,129)" d="m0 0h5l1 2-14 2v-3z" fill="#2CB9DA"/>
<path transform="translate(251,251)" d="m0 0 1 3-7 6-2-1 5-6z" fill="#2DB7DA"/>
</svg>
